<svg width="500" height="500" viewBox="0 0 500 500" fill="none" xmlns="http://www.w3.org/2000/svg">
  <!-- Pot Shadow -->
  <ellipse cx="250" cy="420" rx="120" ry="20" fill="#E2E8F0" />
  
  <!-- Back Leaves -->
  <path d="M250 300 C 200 250 150 200 180 150 C 210 100 260 150 250 300 Z" fill="#4ADE80" stroke="#22C55E" stroke-width="2"/>
  <path d="M250 300 C 300 250 350 200 320 150 C 290 100 240 150 250 300 Z" fill="#4ADE80" stroke="#22C55E" stroke-width="2"/>
  <path d="M250 300 C 220 220 180 180 200 120 C 220 60 280 120 250 300 Z" fill="#86EFAC" stroke="#22C55E" stroke-width="2"/>
  <path d="M250 300 C 280 220 320 180 300 120 C 280 60 220 120 250 300 Z" fill="#86EFAC" stroke="#22C55E" stroke-width="2"/>
  
  <!-- Stem -->
  <path d="M250 350 L 250 250" stroke="#15803D" stroke-width="8" stroke-linecap="round"/>
  
  <!-- Front Leaves -->
  <path d="M250 320 C 180 300 100 280 120 200 C 140 120 250 280 250 320 Z" fill="#22C55E" stroke="#166534" stroke-width="2"/>
  <path d="M250 320 C 320 300 400 280 380 200 C 360 120 250 280 250 320 Z" fill="#22C55E" stroke="#166534" stroke-width="2"/>
  <path d="M250 340 C 180 340 120 320 140 250 C 160 180 250 300 250 340 Z" fill="#166534" stroke="#14532D" stroke-width="2"/>
  <path d="M250 340 C 320 340 380 320 360 250 C 340 180 250 300 250 340 Z" fill="#166534" stroke="#14532D" stroke-width="2"/>

  <!-- Pot Body -->
  <path d="M160 300 L 180 400 C 185 430 315 430 320 400 L 340 300 Z" fill="#0D9488" />
  
  <!-- Pot Rim -->
  <path d="M150 300 L 350 300 L 350 320 C 350 330 340 335 330 335 L 170 335 C 160 335 150 330 150 320 Z" fill="#14B8A6" />
  
  <!-- Pot Highlights/Details -->
  <path d="M190 310 L 195 410" stroke="#FFFFFF" stroke-opacity="0.2" stroke-width="4" stroke-linecap="round"/>
  <path d="M210 310 L 215 415" stroke="#FFFFFF" stroke-opacity="0.2" stroke-width="4" stroke-linecap="round"/>
  <path d="M310 310 L 305 410" stroke="#FFFFFF" stroke-opacity="0.2" stroke-width="4" stroke-linecap="round"/>
  
  <!-- Shine -->
  <ellipse cx="300" cy="315" rx="30" ry="5" fill="#FFFFFF" fill-opacity="0.3" transform="rotate(-10 300 315)"/>
</svg>
